<svg width="32" height="29" viewBox="0 0 32 29" fill="none" xmlns="http://www.w3.org/2000/svg">
<path d="M30.4457 20.1059H9.51015L10.5613 17.9648L28.0269 17.9332C28.6176 17.9332 29.1238 17.5113 29.2293 16.9277L31.648 3.38906C31.7113 3.03398 31.6164 2.66836 31.3844 2.39063C31.2697 2.25394 31.1267 2.14383 30.9652 2.06795C30.8037 1.99207 30.6276 1.95222 30.4492 1.95117L8.23046 1.87734L8.04062 0.984375C7.92108 0.414844 7.4078 0 6.82421 0H1.39257C1.06343 0 0.747771 0.130749 0.515035 0.363485C0.2823 0.596221 0.15155 0.911878 0.15155 1.24102C0.15155 1.57015 0.2823 1.88581 0.515035 2.11855C0.747771 2.35128 1.06343 2.48203 1.39257 2.48203H5.81874L6.64843 6.42656L8.69101 16.316L6.06132 20.6086C5.92475 20.7929 5.8425 21.0118 5.82386 21.2404C5.80522 21.469 5.85094 21.6983 5.95585 21.9023C6.16679 22.3207 6.59218 22.5844 7.06327 22.5844H9.27108C8.80041 23.2095 8.54618 23.971 8.54687 24.7535C8.54687 26.7434 10.1641 28.3606 12.1539 28.3606C14.1437 28.3606 15.7609 26.7434 15.7609 24.7535C15.7609 23.9695 15.5008 23.2066 15.0367 22.5844H20.7004C20.2297 23.2095 19.9755 23.971 19.9762 24.7535C19.9762 26.7434 21.5934 28.3606 23.5832 28.3606C25.573 28.3606 27.1902 26.7434 27.1902 24.7535C27.1902 23.9695 26.9301 23.2066 26.466 22.5844H30.4492C31.1312 22.5844 31.6902 22.0289 31.6902 21.3434C31.6882 21.0146 31.5562 20.6999 31.323 20.4681C31.0899 20.2363 30.7745 20.106 30.4457 20.1059V20.1059ZM8.74726 4.32422L28.9902 4.39102L27.0074 15.4934L11.1062 15.5215L8.74726 4.32422ZM12.1539 25.8645C11.5422 25.8645 11.043 25.3652 11.043 24.7535C11.043 24.1418 11.5422 23.6426 12.1539 23.6426C12.7656 23.6426 13.2648 24.1418 13.2648 24.7535C13.2648 25.0482 13.1478 25.3307 12.9394 25.5391C12.7311 25.7474 12.4485 25.8645 12.1539 25.8645V25.8645ZM23.5832 25.8645C22.9715 25.8645 22.4723 25.3652 22.4723 24.7535C22.4723 24.1418 22.9715 23.6426 23.5832 23.6426C24.1949 23.6426 24.6941 24.1418 24.6941 24.7535C24.6941 25.0482 24.5771 25.3307 24.3687 25.5391C24.1604 25.7474 23.8778 25.8645 23.5832 25.8645V25.8645Z" fill="white"/>
</svg>
